PathFileType	4	(X/Y/Z)	c:/Users/goper/Files/vsCode/490R/osim_files/A03/A03_Fast_04.trc
DataRate	CameraRate	NumFrames	NumMarkers	Units                	OrigDataRate	OrigDataStartFrame	OrigNumFrames
250.00	250.00	4	36	mm	250.0	672	2687
                Frame#	Time	LPSIS			LASIS			LTH1			LTH2			LTH3			LTH4			LLFE			LMFE			LSH1			LSH2			LSH3			LSH4			LLMAL			LMMAL			LCAL			LMTP5			LTOE			LMTP1			RPSIS			RASIS			RTH1			RTH2			RTH3			RTH4			RLFE			RMFE			RSH1			RSH2			RSH3			RSH4			RLMAL			RMMAL			RCAL			RMTP1			RTOE			RMTP5		
		X1	Y1	Z1	X2	Y2	Z2	X3	Y3	Z3	X4	Y4	Z4	X5	Y5	Z5	X6	Y6	Z6	X7	Y7	Z7	X8	Y8	Z8	X9	Y9	Z9	X10	Y10	Z10	X11	Y11	Z11	X12	Y12	Z12	X13	Y13	Z13	X14	Y14	Z14	X15	Y15	Z15	X16	Y16	Z16	X17	Y17	Z17	X18	Y18	Z18	X19	Y19	Z19	X20	Y20	Z20	X21	Y21	Z21	X22	Y22	Z22	X23	Y23	Z23	X24	Y24	Z24	X25	Y25	Z25	X26	Y26	Z26	X27	Y27	Z27	X28	Y28	Z28	X29	Y29	Z29	X30	Y30	Z30	X31	Y31	Z31	X32	Y32	Z32	X33	Y33	Z33	X34	Y34	Z34	X35	Y35	Z35	X36	Y36	Z36

672	2.68400	0.00000	0.00000	0.00000	0.00000	0.00000	0.00000	0.00000	0.00000	0.00000	1802.50977	599.67188	417.04160	1779.36707	659.63562	396.85046	1759.65662	620.69531	397.75500	1791.78357	554.89972	407.09573	1784.46497	548.95508	251.99496	1827.88013	465.89117	407.98819	1822.09021	415.84854	406.89758	1767.72595	470.40900	401.15610	0.00000	0.00000	0.00000	1789.21350	95.39845	372.28741	0.00000	0.00000	0.00000	0.00000	0.00000	0.00000	1634.12451	45.94773	376.03308	0.00000	0.00000	0.00000	1638.61108	60.85738	261.39978	2069.34912	1007.71906	249.40692	0.00000	0.00000	0.00000	0.00000	0.00000	0.00000	0.00000	0.00000	0.00000	2187.69678	1095.74719	176.50499	0.00000	0.00000	0.00000	1853.86108	360.86942	-14.17374	0.00000	0.00000	0.00000	0.00000	0.00000	0.00000	0.00000	0.00000	0.00000	0.00000	0.00000	0.00000	2015.27954	526.85846	-2.21719	0.00000	0.00000	0.00000	0.00000	0.00000	0.00000	0.00000	0.00000	0.00000	1604.91724	27.75609	373.17773	1641.90149	-27.48193	367.31668	0.00000	0.00000	0.00000
673	2.68800	1641.74878	-27.51148	367.31717	0.00000	0.00000	0.00000	0.00000	0.00000	0.00000	1799.30750	599.77710	417.66541	1775.17126	659.70050	397.69250	1755.25964	621.24451	397.85751	1788.56763	554.91296	407.68192	1778.32166	551.41101	253.28873	1825.31042	466.22604	408.47083	1819.79773	416.12485	407.34192	1765.08337	470.28214	401.73944	1769.00464	418.87262	395.70334	1788.95117	95.44205	372.21823	0.00000	0.00000	0.00000	0.00000	0.00000	0.00000	1634.03625	45.69130	376.12564	0.00000	0.00000	0.00000	1637.97375	60.07777	261.20065	0.00000	0.00000	0.00000	1902.26807	942.77515	63.58022	0.00000	0.00000	0.00000	0.00000	0.00000	0.00000	2182.47192	1096.57300	176.42586	0.00000	0.00000	0.00000	1841.73999	361.52713	-14.65383	0.00000	0.00000	0.00000	0.00000	0.00000	0.00000	0.00000	0.00000	0.00000	0.00000	0.00000	0.00000	2004.66003	527.73401	-2.61660	2156.10376	457.70044	296.88544	0.00000	0.00000	0.00000	0.00000	0.00000	0.00000	1604.74902	27.46165	373.27103	0.00000	0.00000	0.00000	0.00000	0.00000	0.00000
674	2.69200	0.00000	0.00000	0.00000	0.00000	0.00000	0.00000	0.00000	0.00000	0.00000	1796.23523	599.85413	418.22293	1771.30774	659.66003	398.37256	1751.92822	621.14429	398.46201	1785.61340	555.06281	408.23553	1775.31396	551.44196	253.77480	1822.82031	466.49628	408.90671	1817.53638	416.36401	407.71909	1762.62634	470.28360	402.16400	0.00000	0.00000	0.00000	1788.83130	95.51746	372.27640	0.00000	0.00000	0.00000	0.00000	0.00000	0.00000	1634.09814	45.40561	376.34955	0.00000	0.00000	0.00000	1637.80493	59.96905	261.23602	2058.00903	1009.18640	249.10292	1896.14941	944.10242	64.29971	0.00000	0.00000	0.00000	0.00000	0.00000	0.00000	2177.23706	1097.40881	176.34889	0.00000	0.00000	0.00000	1829.45618	362.18298	-15.12915	0.00000	0.00000	0.00000	0.00000	0.00000	0.00000	0.00000	0.00000	0.00000	0.00000	0.00000	0.00000	1994.01660	528.73572	-2.96129	2155.07056	457.00681	296.82214	0.00000	0.00000	0.00000	0.00000	0.00000	0.00000	1604.57617	27.10634	373.34805	1641.57263	-27.55139	367.32562	0.00000	0.00000	0.00000
675	2.69600	1604.37024	26.77057	373.38461	0.00000	0.00000	0.00000	0.00000	0.00000	0.00000	1793.20386	599.93890	418.69540	0.00000	0.00000	0.00000	1749.24634	621.01782	399.45041	1782.68396	555.12683	408.69443	1775.19324	549.19641	253.55864	1820.34583	466.68051	409.25110	1815.37927	416.54562	408.07040	1760.16992	470.18335	402.61331	0.00000	0.00000	0.00000	1788.56348	95.43915	372.21185	0.00000	0.00000	0.00000	0.00000	0.00000	0.00000	1633.82581	45.02569	376.20596	0.00000	0.00000	0.00000	1637.60242	59.71408	261.31854	0.00000	0.00000	0.00000	1889.79590	945.34027	65.22787	0.00000	0.00000	0.00000	0.00000	0.00000	0.00000	2171.97144	1098.19800	176.32182	0.00000	0.00000	0.00000	1817.20593	362.98059	-15.50186	0.00000	0.00000	0.00000	0.00000	0.00000	0.00000	0.00000	0.00000	0.00000	0.00000	0.00000	0.00000	1983.31152	529.87531	-3.17984	0.00000	0.00000	0.00000	2052.40479	1009.96198	248.92415	0.00000	0.00000	0.00000	0.00000	0.00000	0.00000	0.00000	0.00000	0.00000	2397.93945	908.92456	411.27255
